<?xml version="1.0" standalone="no"?>
<!DOCTYPE svg PUBLIC "-//W3C//DTD SVG 20010904//EN"
 "http://www.w3.org/TR/2001/REC-SVG-20010904/DTD/svg10.dtd">
<svg version="1.0" xmlns="http://www.w3.org/2000/svg"
 width="350.000000pt" height="315.000000pt" viewBox="0 0 350.000000 315.000000"
 preserveAspectRatio="xMidYMid meet">

<g transform="translate(0.000000,315.000000) scale(0.100000,-0.100000)"
fill="#000000" stroke="none">
<path d="M140 2310 l0 -650 28 7 c15 5 71 8 125 8 53 0 97 3 97 8 0 4 -9 15
-21 25 -28 23 -38 52 -45 125 -3 33 -15 79 -27 101 -18 35 -21 55 -19 131 1
50 -2 115 -7 145 -6 37 -5 57 2 62 7 4 6 29 -3 81 -16 96 -8 138 37 188 l36
39 -9 108 c-10 129 -9 208 5 245 l11 27 -105 0 -105 0 0 -650z"/>
<path d="M378 2903 c-2 -89 2 -163 12 -222 6 -30 10 -77 10 -105 0 -28 4 -57
9 -65 5 -8 40 -30 77 -50 95 -51 110 -74 106 -168 -2 -61 1 -80 15 -96 14 -15
18 -37 18 -111 0 -57 5 -100 14 -115 21 -37 14 -96 -23 -211 -38 -116 -45
-122 -120 -102 -27 8 -36 7 -40 -4 -4 -11 -36 -14 -153 -14 -99 0 -143 -3
-133 -10 8 -5 66 -10 128 -10 93 0 112 -3 112 -15 0 -16 -25 -43 -56 -61 -16
-9 -19 -23 -20 -85 0 -44 -8 -97 -19 -131 -18 -56 -18 -57 3 -105 16 -38 20
-61 15 -104 -4 -38 -1 -66 11 -93 20 -49 20 -58 -4 -110 -15 -35 -17 -50 -9
-79 9 -33 74 -127 98 -142 11 -6 9 -50 -8 -200 -15 -124 -21 -335 -12 -385 7
-43 8 -44 18 -20 11 27 29 196 43 417 5 77 15 156 23 175 8 18 43 58 78 88 98
82 153 143 261 287 54 73 103 133 108 133 9 0 18 -51 60 -355 57 -419 66 -465
91 -465 20 0 3 200 -41 475 -46 284 -46 274 22 372 29 42 33 57 37 127 3 79
-16 178 -45 235 -7 13 -11 28 -8 33 3 4 38 8 78 8 48 0 77 4 84 13 8 9 11 215
12 670 l0 657 -425 0 -425 0 -2 -57z m725 -143 c-2 -30 -10 -138 -18 -240 -26
-317 -25 -328 13 -379 58 -80 40 -189 -47 -279 -42 -42 -42 -42 -39 -110 l3
-67 80 -3 c74 -3 105 -12 105 -33 0 -5 -49 -9 -109 -9 -89 0 -111 3 -122 17
-10 12 -14 51 -14 148 l0 131 -51 59 c-62 72 -74 94 -74 135 0 35 48 140 64
140 6 0 30 -7 53 -16 24 -9 45 -15 47 -13 2 2 14 96 25 209 27 256 39 349 47
362 3 5 13 8 22 6 14 -3 17 -14 15 -58z"/>
<path d="M896 2188 c-23 -32 -20 -60 10 -103 32 -47 126 -155 135 -155 16 0
41 90 35 123 -8 43 -67 112 -117 137 -47 25 -45 25 -63 -2z"/>
<path d="M311 2449 c-9 -38 -8 -55 0 -65 23 -28 158 -105 193 -111 l36 -6 0
45 c0 52 -12 65 -106 121 -34 20 -67 44 -74 52 -23 27 -38 16 -49 -36z"/>
<path d="M327 2283 c-10 -9 -8 -78 2 -106 11 -29 180 -120 214 -115 16 2 24
13 32 42 9 37 8 40 -29 72 -36 31 -184 114 -203 114 -5 0 -13 -3 -16 -7z"/>
<path d="M1331 2213 c2 -4 16 -31 31 -59 15 -28 30 -75 34 -103 6 -48 5 -53
-15 -58 -27 -7 -28 -33 -1 -33 19 0 20 -7 20 -145 0 -132 2 -145 19 -155 11
-5 22 -10 25 -10 3 0 6 32 6 70 0 81 14 114 62 155 31 26 31 28 8 22 -14 -3
-35 -9 -47 -12 -21 -7 -23 -4 -23 34 l0 41 359 0 359 0 4 -131 c3 -130 3 -131
32 -156 38 -33 87 -26 131 17 29 30 30 31 10 46 -26 19 -38 14 -47 -24 -11
-41 -41 -58 -63 -36 -13 13 -15 38 -13 147 l3 132 114 3 114 3 -5 -56 c-4 -48
-3 -55 11 -49 75 33 171 24 171 -16 0 -18 -5 -19 -44 -14 -63 9 -110 -2 -145
-35 -59 -56 -29 -125 60 -137 30 -4 57 -1 82 9 32 14 40 14 64 2 l28 -15 3 95
c3 116 -10 149 -66 166 -28 8 -49 8 -77 0 -41 -11 -58 -2 -52 29 2 13 38 15
240 18 l238 2 -3 -27 c-2 -21 -8 -27 -23 -25 -111 16 -187 -9 -193 -63 -5 -37
12 -67 49 -89 28 -16 34 -17 96 -1 36 9 76 14 89 11 34 -9 30 10 -6 29 -37 19
-75 19 -133 -1 -54 -18 -77 -14 -77 15 0 45 97 68 193 48 l37 -8 0 56 0 55 35
0 35 0 0 -140 0 -139 30 -16 30 -16 0 75 c0 66 3 78 26 106 73 86 164 75 164
-21 0 -46 -11 -72 -48 -111 l-25 -27 27 -12 c32 -15 54 2 81 61 25 55 14 104
-35 152 -31 31 -45 38 -76 38 -22 0 -54 -9 -72 -20 -18 -11 -35 -20 -37 -20
-3 0 -5 20 -5 45 l0 45 130 0 c108 0 130 3 130 15 0 12 -23 15 -126 17 l-126
3 -17 66 c-22 88 -64 149 -102 149 l-28 0 34 -50 c35 -52 49 -99 43 -141 l-3
-24 -415 0 -415 0 -3 35 c-3 32 -23 60 -43 60 -5 0 -9 -21 -11 -47 l-3 -48
-354 0 -355 0 -12 68 c-17 92 -51 151 -88 155 -15 2 -27 0 -25 -5z m1284 -437
c25 -18 14 -41 -32 -65 -52 -26 -103 -34 -136 -22 -37 14 -34 34 10 70 31 26
46 31 88 31 28 0 60 -6 70 -14z"/>
<path d="M1980 2166 c0 -20 26 -55 45 -60 12 -3 28 -19 35 -36 7 -16 16 -30
21 -30 5 0 9 2 9 4 0 14 -40 93 -51 102 -16 13 -59 28 -59 20z"/>
<path d="M327 2093 c-14 -13 -7 -101 9 -118 32 -32 139 -99 187 -117 58 -22
77 -18 77 15 0 89 -37 133 -158 189 -83 38 -103 44 -115 31z"/>
<path d="M2029 1913 c0 -5 -1 -60 -1 -123 -1 -106 1 -115 21 -128 l21 -14 0
136 c0 129 -1 136 -20 136 -11 0 -20 -3 -21 -7z"/>
<path d="M1795 1894 c-19 -10 -31 -11 -33 -5 -2 6 -17 11 -33 11 l-29 0 0
-115 0 -114 30 -16 30 -16 0 84 c0 97 20 139 80 169 32 17 33 18 10 18 -14 0
-38 -7 -55 -16z"/>
<path d="M1893 1899 c25 -15 21 -46 -9 -65 -25 -17 -25 -17 -6 -37 16 -16 23
-17 41 -7 46 24 43 87 -6 109 -30 14 -44 14 -20 0z"/>
<path d="M1606 1877 c9 -24 -29 -59 -66 -62 -50 -4 -60 -26 -27 -67 76 -96 84
-103 101 -89 14 12 13 17 -14 51 -17 21 -30 42 -30 47 0 5 13 14 30 20 42 16
58 54 36 88 -17 26 -39 35 -30 12z"/>
<path d="M370 1826 c0 -36 5 -48 26 -65 33 -26 133 -64 151 -57 21 8 15 60 -9
83 -24 22 -140 83 -158 83 -5 0 -10 -20 -10 -44z"/>
<path d="M2997 1737 c-15 -40 -133 -62 -173 -32 -22 17 -70 20 -79 4 -12 -19
26 -48 71 -55 34 -5 49 -13 66 -38 28 -40 37 -46 70 -46 25 0 27 2 17 24 -7
14 -23 26 -40 30 -40 8 -36 20 10 38 40 16 76 58 69 80 -3 8 -7 6 -11 -5z"/>
<path d="M1417 1522 c-33 -37 -9 -82 43 -82 45 0 66 52 34 84 -21 21 -57 20
-77 -2z m58 -32 c0 -29 -32 -41 -41 -16 -9 24 4 48 23 44 12 -2 18 -12 18 -28z"/>
<path d="M1795 1498 c4 -24 9 -46 12 -50 10 -18 31 -6 40 25 l10 32 13 -32
c16 -43 36 -42 44 3 4 19 10 42 13 50 3 8 -1 14 -11 14 -10 0 -16 -9 -16 -25
0 -14 -4 -25 -9 -25 -5 0 -12 11 -15 25 -8 33 -32 32 -41 -2 l-7 -28 -10 28
c-15 43 -31 33 -23 -15z"/>
<path d="M1950 1490 c0 -52 16 -70 22 -23 4 39 28 42 28 4 0 -21 5 -31 16 -31
11 0 14 8 12 33 -2 27 -8 33 -30 35 -16 2 -28 9 -28 18 0 8 -4 14 -10 14 -5 0
-10 -22 -10 -50z"/>
<path d="M2222 1528 c-7 -7 -12 -24 -12 -38 0 -33 17 -50 51 -50 32 0 47 16
30 33 -8 8 -11 8 -11 -1 0 -17 -37 -15 -44 3 -11 29 4 46 35 40 30 -7 41 8 13
19 -25 9 -49 7 -62 -6z"/>
<path d="M2930 1490 c0 -38 4 -50 15 -50 8 0 15 9 15 20 0 13 7 20 20 20 13 0
20 -7 20 -20 0 -11 7 -20 15 -20 11 0 15 12 15 50 0 38 -4 50 -15 50 -8 0 -15
-9 -15 -20 0 -13 -7 -20 -20 -20 -13 0 -20 7 -20 20 0 11 -7 20 -15 20 -11 0
-15 -12 -15 -50z"/>
<path d="M2608 1518 c-8 -23 7 -73 22 -76 11 -2 15 8 15 40 0 31 -5 44 -16 46
-9 2 -18 -3 -21 -10z"/>
<path d="M1537 1513 c-2 -1 -1 -18 1 -38 5 -42 19 -46 24 -7 4 33 22 32 26 -3
5 -37 22 -30 22 9 0 31 -3 34 -35 38 -20 2 -37 3 -38 1z"/>
<path d="M1650 1500 c-27 -27 -11 -61 28 -59 23 2 24 2 5 6 -31 6 -29 23 1 23
27 0 38 10 28 26 -15 22 -43 23 -62 4z m37 -6 c-3 -3 -12 -4 -19 -1 -8 3 -5 6
6 6 11 1 17 -2 13 -5z"/>
<path d="M2073 1509 c-44 -16 -19 -74 29 -67 16 2 24 11 26 30 4 32 -22 50
-55 37z m34 -25 c8 -21 -13 -42 -28 -27 -13 13 -5 43 11 43 6 0 13 -7 17 -16z"/>
<path d="M2353 1512 c-19 -3 -23 -10 -23 -38 0 -19 5 -34 10 -34 6 0 10 9 10
19 0 11 7 27 16 36 19 19 17 22 -13 17z"/>
<path d="M2415 1506 c-10 -7 -16 -22 -13 -37 2 -19 10 -25 36 -27 17 -2 32 1
32 7 0 6 -7 8 -15 5 -8 -3 -20 -2 -27 2 -9 6 -4 10 17 14 17 3 30 11 30 19 0
20 -40 32 -60 17z m32 -12 c-3 -3 -12 -4 -19 -1 -8 3 -5 6 6 6 11 1 17 -2 13
-5z"/>
<path d="M2523 1513 c-21 -8 -15 -22 7 -16 11 3 20 1 20 -5 0 -5 -11 -13 -25
-16 -42 -11 -31 -36 15 -36 38 0 40 2 40 30 0 19 -7 33 -19 40 -11 5 -21 10
-23 9 -2 0 -9 -3 -15 -6z m27 -53 c0 -5 -4 -10 -10 -10 -5 0 -10 5 -10 10 0 6
5 10 10 10 6 0 10 -4 10 -10z"/>
<path d="M2698 1513 c-22 -5 -33 -40 -18 -58 7 -8 24 -14 39 -14 23 2 24 2 4
6 -31 6 -29 23 1 23 27 0 38 10 28 26 -9 14 -33 21 -54 17z m29 -19 c-3 -3
-12 -4 -19 -1 -8 3 -5 6 6 6 11 1 17 -2 13 -5z"/>
<path d="M2798 1512 c-27 -5 -22 -31 7 -38 14 -3 25 -11 25 -16 0 -6 -11 -8
-25 -6 -14 3 -25 1 -25 -4 0 -5 15 -8 32 -6 43 4 50 33 11 43 l-28 8 25 6 c17
5 20 8 10 12 -8 3 -23 4 -32 1z"/>
<path d="M3069 1501 c-18 -15 -20 -21 -10 -39 22 -42 91 -18 76 26 -8 27 -41
34 -66 13z m41 -26 c0 -16 -6 -25 -15 -25 -9 0 -15 9 -15 25 0 16 6 25 15 25
9 0 15 -9 15 -25z"/>
<path d="M3288 1513 c-22 -5 -33 -40 -18 -58 7 -8 24 -14 39 -14 23 2 24 2 4
6 -31 6 -29 23 1 23 27 0 38 10 28 26 -9 14 -33 21 -54 17z m29 -19 c-3 -3
-12 -4 -19 -1 -8 3 -5 6 6 6 11 1 17 -2 13 -5z"/>
<path d="M3160 1461 c0 -49 12 -67 23 -37 3 8 16 16 29 18 18 2 23 9 23 33 0
27 -3 30 -37 33 l-38 3 0 -50z m55 14 c0 -10 -6 -20 -12 -22 -8 -3 -13 5 -13
22 0 17 5 25 13 23 6 -3 12 -13 12 -23z"/>
</g>
</svg>
